# xmcd
#
# Track frame offsets:
#	182
#	19635
#	36270
#	55512
#	77292
#	100475
#	103497
#	122390
#	145182
#	167535
#	169745
#	191217
#	213007
#	225412
#	226912
#
# Disc length: 3303 seconds
#
# Revision: 2
# Processed by: cddbd v1.5PL3 Copyright (c) Steve Scherf et al.
# Submitted via: dBpowerAMP V4.0
#
DISCID=b50ce50f
DTITLE=TCFCrew - ComeAndPlayWithMe;ColdChillin'9-45144-2
DYEAR=1993
DGENRE=blues
TTITLE0=GoToTheHorse'sMouth(GBolton,CMonet,JPreston;1993,TCFCrew)
TTITLE1=IAin'tTheOne(ARitchberg,BAllen,JOlivier,SBarnes,FPimentel;1993,TCFCrew)
TTITLE2=ThereWillNeverBe(GBolton;1993,TCFCrew)
TTITLE3=GetYourShhRight(GBrown,BBailey,FBolt,KNeely,1993,TCFCrew)
TTITLE4=YouFillMeUp(GBrown,BBailey,FBolt;1993,TCFCrew)
TTITLE5=Condoments{SafeSex}(GBolton;1993,TCFCrew)
TTITLE6=Fantasy(GBolton;1993,TCFCrew)
TTITLE7=HardestWorkingLover(GBrown,MCrump,WGHalo;1993,TCFCrew)
TTITLE8=ICare(DBrown,JCox,GRedd,JCrosby;1993,TCFCrew)
TTITLE9=Mall,The(GBolton;1993,TCFCrew)
TTITLE10=BodyComeTrue(GBolton,ELawson;1993,TCFCrew)
TTITLE11=ComeIntoMyLove(GBolton,ELawson,CBarr;1993,TCFCrew)
TTITLE12=OohBaby,Baby(William'Smokey'Robinson,WarrenMoor;1993,TCFCrew)
TTITLE13=WTCF{HitRadio}(GBolton,CBarr,GSedoc;1993,TCFCrew)
TTITLE14=PlayMe(JSadler,GBolton;1993,TCFCrew)
EXTD=more info
EXTT0=
EXTT1=
EXTT2=
EXTT3=
EXTT4=
EXTT5=
EXTT6=
EXTT7=
EXTT8=
EXTT9=
EXTT10=
EXTT11=
EXTT12=
EXTT13=
EXTT14=
PLAYORDER=
